<svg height="512pt" viewBox="-31 0 512 512" width="512pt" xmlns="http://www.w3.org/2000/svg"><path d="m405 212c-8.402344 0-15 6.597656-15 15 0 41.398438-33.601562 75-75 75h-15v-45c0-41.398438-33.601562-75-75-75s-75 33.601562-75 75 33.601562 75 75 75h45v45c0 35.398438-17.699219 66.898438-45 85.800781-16.800781 12.296875-37.800781 19.199219-60 19.199219-57.898438 0-105-47.101562-105-105v-150c0-8.402344-6.597656-15-15-15s-15 6.597656-15 15v150c0 74.398438 60.601562 135 135 135 21.597656 0 42-5.101562 60-14.101562 44.398438-22.199219 75-68.097657 75-120.898438v-45h15c57.898438 0 105-47.101562 105-105 0-8.402344-6.597656-15-15-15zm-135 90h-45c-24.902344 0-45-20.101562-45-45 0-24.902344 20.097656-45 45-45s45 20.097656 45 45zm0 0" fill="#bbdcff"/><path d="m420 227c0 57.898438-47.101562 105-105 105h-15v45c0 52.800781-30.601562 98.699219-75 120.898438v-35.097657c27.300781-18.902343 45-50.402343 45-85.800781v-45h-45v-30h45v-45c0-24.902344-20.097656-45-45-45v-30c41.398438 0 75 33.601562 75 75v45h15c41.398438 0 75-33.601562 75-75 0-8.402344 6.597656-15 15-15s15 6.597656 15 15zm0 0" fill="#9abadb"/><path d="m450 15c0-8.402344-6.597656-15-15-15h-60c-8.402344 0-15 6.597656-15 15v47.027344c0 16.570312 13.429688 29.972656 30 29.972656h30c16.570312 0 30-13.394531 30-29.964844 0-21.722656 0-48.871094 0-47.035156zm0 0" fill="#1cadb5"/><path d="m90 15c0-8.402344-6.597656-15-15-15h-60c-8.402344 0-15 6.597656-15 15v47.027344c0 16.570312 13.429688 29.972656 30 29.972656h30c16.570312 0 30-13.394531 30-29.964844 0-21.722656 0-48.871094 0-47.035156zm0 0" fill="#00c8c8"/><path d="m0 62h90v135h-90zm0 0" fill="#64e1dc"/><path d="m360 62h90v135h-90zm0 0" fill="#00c8c8"/><path d="m45 152c-24.902344 0-45 20.097656-45 45 0 24.140625 19.574219 45 45 45 25.355469 0 45-20.808594 45-45 0-24.902344-20.097656-45-45-45zm0 0" fill="#00c8c8"/><path d="m405 152c-24.902344 0-45 20.097656-45 45 0 .898438 0 2.101562.300781 3 1.5 23.398438 20.699219 42 44.699219 42s43.199219-18.601562 44.699219-42c.300781-.898438.300781-2.101562.300781-3 0-24.902344-20.097656-45-45-45zm0 0" fill="#1cadb5"/></svg>