<svg id="Layer_3" enable-background="new 0 0 64 64" height="512" viewBox="0 0 64 64" width="512" xmlns="http://www.w3.org/2000/svg"><g><g><path d="m32 2 30 22h-60z" fill="#4472b2"/></g><g><path d="m4 24h6v38h-6z" fill="#fadfb2"/></g><g><path d="m54 24h6v38h-6z" fill="#fadfb2"/></g><g><path d="m10 24h44v38h-44z" fill="#f5cf88"/></g><g><path d="m29 24h6v38h-6z" fill="#fadfb2"/></g><g><path d="m14 28h11v6h-11z" fill="#ebf7fe"/></g><g><path d="m14 38h11v6h-11z" fill="#ebf7fe"/></g><g><path d="m14 48h11v6h-11z" fill="#ebf7fe"/></g><g><path d="m39 28h11v6h-11z" fill="#ebf7fe"/></g><g><path d="m39 38h11v6h-11z" fill="#ebf7fe"/></g><g><path d="m39 48h11v6h-11z" fill="#ebf7fe"/></g><g><path d="m1 61h62v2h-62z"/></g><g><path d="m62 25h-60c-.433 0-.815-.278-.95-.689s.01-.862.358-1.118l30-22c.354-.258.83-.258 1.184 0l30 22c.349.256.493.707.358 1.118s-.517.689-.95.689zm-56.945-2h53.891l-26.946-19.76z"/></g><g><path d="m32 19c-1.654 0-3-1.346-3-3v-1h2v1c0 .551.448 1 1 1s1-.449 1-1v-1c0-.551-.448-1-1-1-1.654 0-3-1.346-3-3v-1c0-1.654 1.346-3 3-3s3 1.346 3 3v1h-2v-1c0-.551-.448-1-1-1s-1 .449-1 1v1c0 .551.448 1 1 1 1.654 0 3 1.346 3 3v1c0 1.654-1.346 3-3 3z"/></g><g><path d="m31 5h2v3h-2z"/></g><g><path d="m31 18h2v3h-2z"/></g><g><path d="m9 24h2v38h-2z"/></g><g><path d="m3 24h2v38h-2z"/></g><g><path d="m34 24h2v38h-2z"/></g><g><path d="m28 24h2v38h-2z"/></g><g><path d="m59 24h2v38h-2z"/></g><g><path d="m53 24h2v38h-2z"/></g><g><path d="m25 35h-11c-.553 0-1-.447-1-1v-6c0-.552.447-1 1-1h11c.553 0 1 .448 1 1v6c0 .553-.447 1-1 1zm-10-2h9v-4h-9z"/></g><g><path d="m25 45h-11c-.553 0-1-.447-1-1v-6c0-.553.447-1 1-1h11c.553 0 1 .447 1 1v6c0 .553-.447 1-1 1zm-10-2h9v-4h-9z"/></g><g><path d="m25 55h-11c-.553 0-1-.447-1-1v-6c0-.553.447-1 1-1h11c.553 0 1 .447 1 1v6c0 .553-.447 1-1 1zm-10-2h9v-4h-9z"/></g><g><path d="m50 35h-11c-.553 0-1-.447-1-1v-6c0-.552.447-1 1-1h11c.553 0 1 .448 1 1v6c0 .553-.447 1-1 1zm-10-2h9v-4h-9z"/></g><g><path d="m50 45h-11c-.553 0-1-.447-1-1v-6c0-.553.447-1 1-1h11c.553 0 1 .447 1 1v6c0 .553-.447 1-1 1zm-10-2h9v-4h-9z"/></g><g><path d="m50 55h-11c-.553 0-1-.447-1-1v-6c0-.553.447-1 1-1h11c.553 0 1 .447 1 1v6c0 .553-.447 1-1 1zm-10-2h9v-4h-9z"/></g></g></svg>