<svg height="464pt" viewBox="0 -20 464 464" width="464pt" xmlns="http://www.w3.org/2000/svg"><path d="m16 0h16v380.664062h-16zm0 0" fill="#808080"/><path d="m176 288h56v24h-56zm0 0" fill="#556180"/><path d="m72 216v-48h32l56 96" fill="#556180"/><path d="m440 376v-24c0-79.527344-64.472656-144-144-144v69c0 19.328125-15.671875 35-35 35h-73.28125c-2.054688 0-3.71875-1.664062-3.71875-3.71875.007812-17.679688-8.824219-34.195312-23.535156-44l-63.199219-42.128906c-21.703125-14.453125-47.195313-22.160156-73.265625-22.152344v176zm0 0" fill="#ed1c24"/><path d="m40 424h400c13.253906 0 24-10.746094 24-24s-10.746094-24-24-24h-416c-13.253906 0-24 10.746094-24 24s10.746094 24 24 24zm0 0" fill="#f8cf26"/><path d="m420.679688 280.167969c-47.25 1.75-84.65625 40.550781-84.679688 87.832031v8h104v-24c0-25.226562-6.664062-50.007812-19.320312-71.832031zm0 0" fill="#29485a"/><path d="m112 376c0-35.347656-28.652344-64-64-64h-24v64zm0 0" fill="#29485a"/><path d="m24 256h40c8.835938 0 16 7.164062 16 16s-7.164062 16-16 16h-40" fill="#f8cf26"/><path d="m296 240h-24v-8c0-4.417969-3.582031-8-8-8s-8 3.582031-8 8v32c0 4.417969 3.582031 8 8 8s8-3.582031 8-8v-8h24zm0 0" fill="#24ae5f"/><path d="m440 320h-40c-8.835938 0-16 7.164062-16 16s7.164062 16 16 16h40" fill="#f2f2f2"/></svg>