<?xml version="1.0" encoding="iso-8859-1"?>
<!-- Generator: Adobe Illustrator 21.0.0, SVG Export Plug-In . SVG Version: 6.00 Build 0)  -->
<svg xmlns="http://www.w3.org/2000/svg" xmlns:xlink="http://www.w3.org/1999/xlink" version="1.1" id="Capa_1" x="0px" y="0px" viewBox="0 0 512 512" style="enable-background:new 0 0 512 512;" xml:space="preserve" width="512" height="512">
<g>
	<path style="fill:#FDDB33;" d="M502.745,87.565c5.111,0,9.255,4.144,9.255,9.255V136c0,5.111-4.144,9.255-9.255,9.255H316.266   v-57.69H502.745z"/>
	<path style="fill:#EBA875;" d="M326.919,486.77c0,13.934-11.296,25.23-25.23,25.23H25.23C11.296,512,0,500.704,0,486.77V25.23   C0,11.296,11.296,0,25.23,0h276.459c13.934,0,25.23,11.296,25.23,25.23V486.77z"/>
	<path style="fill:#E09760;" d="M301.689,0h-33.996c13.934,0,25.23,11.296,25.23,25.23v461.54c0,13.934-11.296,25.23-25.23,25.23   h33.996c13.934,0,25.23-11.296,25.23-25.23V25.23C326.919,11.296,315.623,0,301.689,0z"/>
	<path style="fill:#FFFFFF;" d="M53.484,87.697V73.602c0-11.801,9.567-21.368,21.368-21.368h177.215   c11.801,0,21.368,9.567,21.368,21.368v120.491c0,11.801-9.567,21.368-21.368,21.368H74.852c-11.801,0-21.368-9.567-21.368-21.368   v-68.504V87.697z"/>
	<path style="fill:#FDDB33;" d="M238.073,167.257l-66.993-38.741v-1.116c6.036-2.782,12.717-8.867,12.717-20.18   c0-12.24-9.23-21.47-21.47-21.47c-11.839,0-21.47,9.631-21.47,21.47c0,4.267,3.459,7.726,7.726,7.726s7.726-3.459,7.726-7.726   c0-3.318,2.699-6.017,6.017-6.017c2.776,0,6.018,1.576,6.018,6.017c0,5.033-3.508,6.314-5.053,6.633   c-4.238,0.033-7.664,3.48-7.664,7.726v7.059l-66.782,38.619c-3.027,1.75-4.501,5.314-3.595,8.691   c0.906,3.376,3.966,5.724,7.462,5.724h141.492c3.496,0,6.556-2.348,7.462-5.724C242.573,172.571,241.1,169.007,238.073,167.257z    M121.508,166.219l41.951-24.26l41.951,24.26H121.508z"/>
	<circle style="fill:#5E6478;" cx="57.351" cy="278.664" r="20.089"/>
	<g>
		<path style="fill:#5E6478;" d="M137.19,285.875H66.107c-4.267,0-7.726-3.459-7.726-7.726s3.459-7.726,7.726-7.726h71.082    c4.267,0,7.726,3.459,7.726,7.726S141.457,285.875,137.19,285.875z"/>
	</g>
	<path style="fill:#FDDB33;" d="M512,424.56H187.598v-39.348c0-21.731,17.617-39.348,39.348-39.348h245.706   c21.731,0,39.348,17.617,39.348,39.348V424.56z"/>
	<path style="fill:#F9C032;" d="M472.652,345.864h-33.996c21.731,0,39.348,17.617,39.348,39.348v39.348H512v-39.348   C512,363.481,494.383,345.864,472.652,345.864z"/>
	<g>
		<path style="fill:#5E6478;" d="M400.74,107.654h-32.966c-4.268,0-7.726,3.459-7.726,7.726c0,4.267,3.459,7.726,7.726,7.726h9.787    v18.543c0,4.267,3.459,7.726,7.726,7.726s7.726-3.459,7.726-7.726v-18.543h7.726c4.268,0,7.726-3.459,7.726-7.726    C408.467,111.113,405.008,107.654,400.74,107.654z"/>
		<path style="fill:#5E6478;" d="M471.823,107.654h-32.966c-4.268,0-7.726,3.459-7.726,7.726c0,4.267,3.459,7.726,7.726,7.726h9.787    v18.543c0,4.267,3.459,7.726,7.726,7.726c4.268,0,7.726-3.459,7.726-7.726v-18.543h7.726c4.268,0,7.726-3.459,7.726-7.726    C479.549,111.113,476.091,107.654,471.823,107.654z"/>
	</g>
	<polygon style="fill:#5E6478;" points="187.598,395.074 187.598,424.56 187.598,512 217.368,512 217.368,424.56 482.23,424.56    482.23,512 512,512 512,424.56 512,423.92 512,395.074  "/>
	<g>
		<polygon style="fill:#4C5061;" points="478.004,395.074 478.004,423.92 478.004,424.56 482.23,424.56 482.23,512 512,512     512,424.56 512,423.92 512,395.074   "/>
	</g>
</g>















</svg>
