<svg id="Capa_1" enable-background="new 0 0 509.492 509.492" height="512" viewBox="0 0 509.492 509.492" width="512" xmlns="http://www.w3.org/2000/svg"><path d="m270.061 438.946h-39.981c-61.385 0-111.148-49.763-111.148-111.148v-138.844c0-13.035 10.567-23.602 23.602-23.602h215.072c13.035 0 23.602 10.567 23.602 23.602v138.844c.001 61.385-49.762 111.148-111.147 111.148z" fill="#fff4f1"/><path d="m351.209 165.351v162.447c0 61.385-49.763 111.148-111.148 111.148h30c61.385 0 111.148-49.762 111.148-111.148v-138.844c0-13.035-10.567-23.602-23.602-23.602h-6.398z" fill="#f0e5e3"/><path d="m395.243 194.936c-10.8 0-21.149 1.93-30.723 5.462v39.284c8.707-6.085 19.294-9.666 30.723-9.666 29.663 0 53.709 24.046 53.709 53.709s-24.046 53.709-53.709 53.709c-11.429 0-22.016-3.581-30.723-9.666v39.284c9.574 3.531 19.923 5.462 30.723 5.462 49.036 0 88.788-39.752 88.788-88.789.001-49.037-39.751-88.789-88.788-88.789z" fill="#f0e5e3"/><path d="m431.688 463.242h-364.234c-23.192 0-41.993-18.801-41.993-41.993v-1.018c0-6.933 5.62-12.553 12.553-12.553h423.115c6.933 0 12.553 5.62 12.553 12.553v1.018c-.001 23.192-18.802 41.993-41.994 41.993z" fill="#fee8c7"/><path d="m325.569 501.992h-151.996c-13.725 0-23.38-13.499-18.945-26.488l4.187-12.262h181.511l4.187 12.262c4.436 12.99-5.219 26.488-18.944 26.488z" fill="#fedba6"/><ellipse cx="252.267" cy="291.652" fill="#fee8c7" rx="75.372" ry="75.372" transform="matrix(.164 -.987 .987 .164 -76.814 492.663)"/><path d="m252.267 216.28c-5.137 0-10.152.518-15 1.497 34.439 6.955 60.372 37.384 60.372 73.874s-25.932 66.919-60.372 73.874c4.848.979 9.863 1.497 15 1.497 41.627 0 75.372-33.745 75.372-75.372 0-41.625-33.745-75.37-75.372-75.37z" fill="#fedba6"/><ellipse cx="252.267" cy="288.333" fill="#dc8758" rx="44.214" ry="29.772" transform="matrix(.589 -.808 .808 .589 -129.317 322.514)"/><path d="m379.843 342.971c5.006 1.298 10.184 1.962 15.4 1.962 33.751 0 61.209-27.458 61.209-61.209s-27.458-61.209-61.209-61.209c-6.777 0-12.648 1.409-17.474 4.168-.087.045-.172.091-.257.139-.042.025-.088.045-.13.071-.053.032-.101.069-.153.102-.121.076-.239.153-.355.236-.097.068-.191.139-.283.212-.094.074-.186.149-.276.226-.102.088-.202.179-.299.271-.074.071-.146.144-.217.219-.099.103-.195.208-.287.316-.065.076-.127.153-.189.232-.086.109-.17.22-.249.333-.063.089-.122.181-.181.273-.068.106-.134.213-.195.322-.062.108-.12.219-.176.331-.05.099-.099.198-.144.299-.056.125-.108.251-.158.38-.037.095-.072.19-.105.286-.045.133-.086.266-.123.402-.028.102-.055.203-.079.306-.03.128-.056.257-.079.388-.021.12-.039.24-.055.36-.015.114-.027.229-.037.344-.012.145-.018.289-.022.435-.001.06-.009.118-.009.178v94.455c0 2.412-.083 4.85-.249 7.245-.273 3.934 2.544 7.361 6.381 7.927zm61.609-59.247c0 25.48-20.729 46.209-46.209 46.209-2.205 0-4.397-.169-6.563-.476.008-.553.029-1.108.029-1.659v-89.493c1.916-.515 4.113-.789 6.534-.789 25.48-.001 46.209 20.729 46.209 46.208z"/><path d="m461.128 400.178h-97.043c5.224-6.767 9.686-14.057 13.339-21.818 5.852 1.095 11.821 1.652 17.819 1.652 53.094 0 96.288-43.195 96.288-96.288s-43.195-96.288-96.288-96.288c-2.188 0-4.382.078-6.567.226-.68-16.553-14.353-29.811-31.07-29.811h-137.981c-4.142 0-7.5 3.358-7.5 7.5s3.358 7.5 7.5 7.5h137.982c8.879 0 16.103 7.224 16.103 16.102v7.09c0 4.142 3.358 7.5 7.5 7.5.813 0 1.595-.134 2.328-.373.369.007.741-.003 1.118-.052 3.484-.453 7.046-.683 10.588-.683 44.823 0 81.288 36.466 81.288 81.288s-36.466 81.288-81.288 81.288c-6.892 0-13.734-.862-20.338-2.564-.076-.02-.152-.03-.228-.047-.137-.031-.273-.061-.41-.084-.111-.019-.222-.032-.334-.046-.134-.016-.268-.032-.402-.041-.119-.008-.238-.01-.356-.013-.124-.002-.247-.004-.37 0-.128.004-.254.013-.381.023-.113.009-.226.019-.338.034-.132.017-.262.039-.393.063-.106.019-.212.039-.318.063-.13.03-.259.065-.387.101-.104.03-.208.06-.31.094-.124.041-.245.086-.366.134-.105.041-.209.083-.312.128-.113.05-.224.104-.334.16-.106.053-.212.108-.315.166-.102.058-.202.119-.302.181-.106.066-.211.134-.313.206-.093.065-.184.134-.274.203-.101.077-.2.156-.297.238-.088.075-.173.154-.258.233-.09.084-.179.169-.265.259-.086.089-.169.182-.251.277-.076.086-.151.173-.222.263-.086.108-.167.22-.247.332-.06.084-.12.168-.176.255-.083.128-.16.261-.236.394-.046.081-.092.161-.135.244-.074.142-.14.289-.204.437-.026.058-.056.113-.08.172-5.076 12.457-12.425 23.647-21.848 33.296h-114.294c-4.142 0-7.5 3.358-7.5 7.5s3.358 7.5 7.5 7.5h231.179c2.786 0 5.053 2.267 5.053 5.053v1.018c0 19.02-15.474 34.494-34.493 34.494h-364.235c-19.02 0-34.493-15.474-34.493-34.494v-1.018c0-2.787 2.267-5.053 5.053-5.053h161.936c4.142 0 7.5-3.358 7.5-7.5s-3.358-7.5-7.5-7.5h-44.168c-.194-.266-.401-.525-.634-.77-18.518-19.371-28.715-44.802-28.715-71.61v-138.838c0-8.879 7.224-16.102 16.103-16.102h47.089c4.142 0 7.5-3.358 7.5-7.5s-3.358-7.5-7.5-7.5h-47.089c-17.15 0-31.103 13.953-31.103 31.102v138.845c0 26.44 8.674 51.707 24.631 72.379h-98.051c-11.057 0-20.053 8.996-20.053 20.053v1.018c0 27.291 22.203 49.494 49.493 49.494h80.876l-.798 2.338c-2.906 8.51-1.572 17.586 3.659 24.901s13.39 11.51 22.383 11.51h151.996c8.993 0 17.151-4.195 22.383-11.51 5.231-7.315 6.565-16.391 3.659-24.901l-.799-2.339h80.876c27.29 0 49.493-22.203 49.493-49.494v-1.018c0-11.057-8.995-20.052-20.053-20.052zm-123.712 77.751c1.322 3.871.715 8-1.665 11.328-2.38 3.327-6.091 5.236-10.182 5.236h-151.996c-4.091 0-7.802-1.909-10.182-5.236-2.38-3.328-2.987-7.457-1.665-11.328l2.454-7.185h170.782z"/><path d="m221.823 330.136c5.051 3.679 11.061 5.538 17.596 5.538 4.474 0 9.195-.871 14.023-2.627 10.85-3.944 21.132-12.032 28.954-22.772s12.364-23.009 12.789-34.545c.465-12.633-3.964-23.003-12.474-29.2-8.509-6.197-19.74-7.231-31.619-2.912-10.85 3.945-21.132 12.032-28.954 22.773-17.072 23.441-17.21 51.441-.315 63.745zm58.372-54.958c-.316 8.585-3.841 17.914-9.924 26.267s-13.88 14.57-21.954 17.505c-2.14.778-5.285 1.649-8.636 1.691 1.661-6.491 5.417-16.571 13.679-24.618 3.552-3.46 6.849-6.133 10.037-8.718 5.695-4.617 11.172-9.058 16.617-16.737.204 1.725.228 3.326.181 4.61zm-45.932.043c6.083-8.353 13.88-14.57 21.955-17.506 2.194-.798 5.441-1.702 8.887-1.702 1.914 0 3.888.286 5.778 1.017-5.291 9.165-10.342 13.28-16.932 18.623-3.288 2.667-7.015 5.688-11.056 9.625-9.104 8.867-13.971 19.349-16.558 27.472-4.457-9.128-1.576-24.482 7.926-37.529z"/><path d="m169.396 291.652c0 45.696 37.176 82.872 82.872 82.872s82.872-37.176 82.872-82.872c0-45.695-37.176-82.872-82.872-82.872s-82.872 37.177-82.872 82.872zm82.871-67.872c37.424 0 67.872 30.447 67.872 67.872s-30.447 67.872-67.872 67.872-67.872-30.447-67.872-67.872c.001-37.424 30.448-67.872 67.872-67.872z"/><path d="m206.795 136.055c0 4.142 3.358 7.5 7.5 7.5s7.5-3.358 7.5-7.5c0-8.222 2.73-11.879 6.509-16.94 4.229-5.662 9.491-12.709 9.491-25.914s-5.262-20.252-9.491-25.914c-3.779-5.061-6.509-8.717-6.509-16.94 0-8.22 2.73-11.876 6.509-16.936 4.229-5.662 9.491-12.708 9.491-25.911 0-4.142-3.358-7.5-7.5-7.5s-7.5 3.358-7.5 7.5c0 8.22-2.73 11.876-6.509 16.936-4.228 5.662-9.491 12.708-9.491 25.912 0 13.205 5.262 20.252 9.491 25.914 3.779 5.061 6.509 8.717 6.509 16.94 0 8.222-2.73 11.878-6.509 16.939-4.228 5.662-9.491 12.709-9.491 25.914z"/><path d="m261.346 136.055c0 4.142 3.358 7.5 7.5 7.5s7.5-3.358 7.5-7.5c0-8.222 2.73-11.879 6.509-16.94 4.228-5.662 9.491-12.709 9.491-25.914s-5.262-20.252-9.491-25.914c-3.779-5.061-6.509-8.717-6.509-16.94 0-8.22 2.73-11.876 6.509-16.936 4.228-5.662 9.491-12.708 9.491-25.911 0-4.142-3.358-7.5-7.5-7.5s-7.5 3.358-7.5 7.5c0 8.22-2.73 11.876-6.509 16.936-4.228 5.662-9.491 12.708-9.491 25.912 0 13.205 5.262 20.252 9.491 25.914 3.779 5.061 6.509 8.717 6.509 16.94 0 8.222-2.73 11.878-6.509 16.939-4.229 5.662-9.491 12.709-9.491 25.914z"/></svg>