<?xml version="1.0" encoding="iso-8859-1"?>
<!-- Generator: Adobe Illustrator 18.0.0, SVG Export Plug-In . SVG Version: 6.00 Build 0)  -->
<!DOCTYPE svg PUBLIC "-//W3C//DTD SVG 1.1//EN" "http://www.w3.org/Graphics/SVG/1.1/DTD/svg11.dtd">
<svg version="1.1" id="Capa_1" xmlns="http://www.w3.org/2000/svg" xmlns:xlink="http://www.w3.org/1999/xlink" x="0px" y="0px"
	 viewBox="0 0 397.178 397.178" style="enable-background:new 0 0 397.178 397.178;" xml:space="preserve">
<g>
	<path d="M112.002,215.607H45.957L19.706,110.098c-1.333-5.36-6.76-8.625-12.119-7.29c-5.359,1.333-8.623,6.759-7.29,12.119
		l28.138,113.094c1.109,4.457,5.111,7.585,9.704,7.585h12.871c0.098,5.438,4.529,9.819,9.991,9.819h5.828v21.066
		c-9.751,0.331-17.586,8.346-17.586,18.176c0,5.523,4.477,10,10,10c4.911,0,8.995-3.54,9.84-8.207h15.493
		c0.845,4.667,4.929,8.207,9.84,8.207c5.523,0,10-4.477,10-10c0-9.83-7.836-17.845-17.586-18.176v-21.066h2.311
		c5.462,0,9.893-4.38,9.991-9.819h12.871c5.523,0,10-4.477,10-10S117.525,215.607,112.002,215.607z"/>
	<path d="M389.59,102.809c-5.355-1.331-10.784,1.93-12.119,7.29L351.22,215.607h-66.045c-5.523,0-10,4.477-10,10s4.477,10,10,10
		h12.871c0.098,5.438,4.529,9.819,9.991,9.819h2.311v21.066c-9.751,0.331-17.586,8.345-17.586,18.176c0,5.523,4.477,10,10,10
		c4.911,0,8.995-3.54,9.84-8.207h15.493c0.845,4.667,4.929,8.207,9.84,8.207c5.523,0,10-4.477,10-10
		c0-9.83-7.835-17.844-17.586-18.176v-21.066h5.828c5.462,0,9.893-4.38,9.991-9.819h12.871c4.593,0,8.595-3.128,9.704-7.585
		l28.138-113.094C398.213,109.568,394.949,104.142,389.59,102.809z"/>
	<path d="M285.755,189.167c5.523,0,10-4.477,10-10s-4.477-10-10-10H111.422c-5.523,0-10,4.477-10,10s4.477,10,10,10h24.259v95.5
		c0,5.523,4.477,10,10,10h105.814c5.523,0,10-4.477,10-10v-95.5H285.755z M241.496,274.667h-85.814v-85.5h85.814V274.667z"/>
</g>
<g>
</g>
<g>
</g>
<g>
</g>
<g>
</g>
<g>
</g>
<g>
</g>
<g>
</g>
<g>
</g>
<g>
</g>
<g>
</g>
<g>
</g>
<g>
</g>
<g>
</g>
<g>
</g>
<g>
</g>
</svg>
