<svg height="511pt" viewBox="0 0 511.9996 511" width="511pt" xmlns="http://www.w3.org/2000/svg"><g fill-rule="evenodd"><path d="m387.316406 278.671875c18.304688-33.75 41.5-76.507813 87.410156-134.863281l.011719-.011719c-11.375-22.058594-26.304687-42.757813-44.792969-61.25-18.488281-18.484375-39.183593-33.414063-61.238281-44.785156l-.023437.007812c-58.355469 45.90625-101.113282 69.105469-134.867188 87.40625-27 14.640625-47.796875 25.917969-65.511718 43.636719-24.214844 24.214844-36.324219 55.953125-36.324219 87.6875s12.109375 63.472656 36.324219 87.6875c24.214843 24.21875 55.953124 36.324219 87.6875 36.324219 31.734374 0 63.472656-12.109375 87.6875-36.324219 17.71875-17.714844 28.996093-38.515625 43.636718-65.515625zm0 0" fill="#cbe557"/><path d="m168.304688 168.8125c17.71875-17.71875 38.515624-28.996094 65.515624-43.636719 33.75-18.304687 76.511719-41.5 134.867188-87.410156l.023438-.003906c-13.925782-7.179688-28.394532-12.941407-43.1875-17.285157l-.003907.003907c-46.761719 34.929687-82.167969 54.136719-110.8125 69.671875-30 16.269531-53.109375 28.796875-74.6875 50.375-32.023437 32.023437-48.03125 74-48.03125 115.972656 0 41.976562 16.011719 83.949219 48.03125 115.972656 32.027344 32.023438 74 48.035156 115.976563 48.035156 41.972656 0 83.949218-16.011718 115.972656-48.035156 21.574219-21.578125 34.105469-44.683594 50.375-74.683594 15.535156-28.644531 34.738281-64.050781 69.667969-110.8125h.007812c-4.34375-14.789062-10.101562-29.253906-17.277343-43.175781l-.015626.007813c-45.90625 58.355468-69.105468 101.117187-87.40625 134.867187-14.640624 27-25.917968 47.796875-43.636718 65.515625-24.214844 24.214844-55.953125 36.324219-87.6875 36.324219s-63.472656-12.109375-87.6875-36.324219c-24.214844-24.21875-36.324219-55.953125-36.324219-87.6875-.003906-31.738281 12.105469-63.476562 36.320313-87.691406zm0 0" fill="#eef2f2"/><path d="m140.019531 140.527344c21.578125-21.578125 44.6875-34.105469 74.683594-50.375 28.644531-15.535156 64.054687-34.742188 110.816406-69.671875l.003907-.003907c-83.554688-24.535156-177.566407-3.84375-243.480469 62.070313-96.074219 96.070313-96.074219 251.832031 0 347.90625 96.070312 96.070313 251.832031 96.070313 347.902343 0 65.914063-65.914063 86.605469-159.925781 62.074219-243.476563l-.007812-.003906c-34.929688 46.761719-54.136719 82.171875-69.667969 110.816406-16.269531 30-28.800781 53.105469-50.375 74.683594-32.027344 32.023438-74 48.035156-115.976562 48.035156-41.972657 0-83.949219-16.011718-115.972657-48.035156-32.023437-32.023437-48.035156-74-48.035156-115.972656 0-41.976562 16.011719-83.949219 48.035156-115.972656zm0 0" fill="#cbe557"/></g><path d="m437.015625 75.472656c-18.601563-18.601562-39.820313-34.074218-62.804687-46.042968-.597657-.394532-1.226563-.714844-1.882813-.972657-13.808594-7.042969-28.242187-12.824219-43.125-17.265625-.554687-.222656-1.125-.390625-1.710937-.507812-16.800782-4.886719-34.15625-8.082032-51.8125-9.433594-60.179688-4.613281-120.152344 12.152344-168.894532 47.191406-4.484375 3.222656-5.503906 9.472656-2.28125 13.957032 3.222656 4.480468 9.472656 5.507812 13.957032 2.28125 55.109374-39.617188 121.789062-52.460938 184.089843-39.859376-37.992187 26.914063-67.9375 43.15625-92.613281 56.535157-30.386719 16.476562-54.386719 29.492187-76.988281 52.09375-32.867188 32.867187-50.964844 76.566406-50.964844 123.046875 0 46.480468 18.097656 90.179687 50.964844 123.042968 32.863281 32.863282 76.5625 50.964844 123.042969 50.964844 31.539062 0 62.4375-8.523437 89.347656-24.648437 4.738281-2.839844 6.277344-8.976563 3.441406-13.71875-2.839844-4.734375-8.980469-6.273438-13.71875-3.4375-23.808594 14.265625-51.148438 21.804687-79.070312 21.804687-41.140626 0-79.8125-16.019531-108.902344-45.105468-29.085938-29.085938-45.105469-67.761719-45.105469-108.902344 0-41.136719 16.019531-79.8125 45.105469-108.902344 20.550781-20.546875 42.292968-32.339844 72.382812-48.65625 28.015625-15.191406 62.703125-34.003906 108.164063-67.578125 7.503906 2.402344 14.90625 5.183594 22.179687 8.355469-51.265625 38.972656-89.550781 59.742187-120.761718 76.667968-27.417969 14.867188-49.074219 26.609376-67.820313 45.355469-25.3125 25.3125-39.253906 58.964844-39.253906 94.757813 0 35.796875 13.941406 69.449218 39.253906 94.761718s58.964844 39.25 94.757813 39.25c35.796874 0 69.449218-13.941406 94.761718-39.25 18.742188-18.742187 30.484375-40.398437 45.355469-67.820312 16.902344-31.171875 37.640625-69.398438 76.523437-120.570312 3.148438 7.308593 5.902344 14.75 8.277344 22.28125-33.4375 45.320312-52.195312 79.914062-67.359375 107.871093-8.722656 16.085938-16.257812 29.980469-24.640625 42.652344-3.050781 4.605469-1.785156 10.8125 2.820313 13.859375 1.699219 1.121094 3.613281 1.660156 5.507812 1.660156 3.246094 0 6.425781-1.578125 8.351563-4.484375 8.867187-13.402343 16.59375-27.652343 25.542968-44.152343 13.328126-24.582032 29.5-54.398438 56.230469-92.183594 14.777344 74.707031-6.710937 155.230468-64.488281 213.007812-92.019531 92.019532-241.746094 92.019532-333.761719 0-82.175781-82.175781-92.664062-210.195312-24.9375-304.40625 3.222657-4.484375 2.199219-10.734375-2.285156-13.957031s-10.730469-2.199219-13.957031 2.28125c-35.035156 48.742187-51.792969 108.71875-47.183594 168.890625 4.660156 60.835938 31.019531 118.128906 74.21875 161.332031 48.355469 48.351563 112.644531 74.980469 181.023438 74.980469 68.382812 0 132.671874-26.628906 181.027343-74.980469 48.351563-48.355469 74.980469-112.644531 74.980469-181.023437 0-68.382813-26.628906-132.671875-74.984375-181.023438zm-58.492187 198.4375c-14.644532 27.003906-25.226563 46.511719-41.914063 63.199219-21.53125 21.535156-50.164063 33.394531-80.617187 33.398437-30.449219 0-59.082032-11.859374-80.613282-33.398437-21.535156-21.53125-33.398437-50.164063-33.398437-80.613281 0-30.453125 11.859375-59.082032 33.398437-80.617188 16.6875-16.691406 36.203125-27.273437 63.207032-41.917968 33.414062-18.117188 74.761718-40.542969 131.214843-84.378907 19.054688 10.554688 36.949219 23.90625 53.074219 40.03125 16.15625 16.15625 29.464844 34.097657 39.945312 53.1875-43.78125 56.398438-66.1875 97.710938-84.296874 131.109375zm0 0"/><path d="m82.039062 92.546875c2.257813 0 4.527344-.757813 6.398438-2.316406l.003906-.003907c4.242188-3.535156 4.8125-9.839843 1.277344-14.082031-3.535156-4.242187-9.84375-4.8125-14.085938-1.277343-4.242187 3.535156-4.816406 9.839843-1.28125 14.082031 1.980469 2.375 4.824219 3.597656 7.6875 3.597656zm0 0"/><path d="m371.957031 382.472656c2.863281 0 5.707031-1.226562 7.6875-3.597656l.003907-.007812c3.535156-4.242188 2.960937-10.542969-1.28125-14.082032-4.246094-3.535156-10.550782-2.957031-14.089844 1.285156-3.535156 4.242188-2.960938 10.546876 1.28125 14.085938 1.871094 1.558594 4.140625 2.316406 6.398437 2.316406zm0 0"/></svg>