<?xml version="1.0" encoding="iso-8859-1"?>
<!-- Generator: Adobe Illustrator 18.0.0, SVG Export Plug-In . SVG Version: 6.00 Build 0)  -->
<!DOCTYPE svg PUBLIC "-//W3C//DTD SVG 1.1//EN" "http://www.w3.org/Graphics/SVG/1.1/DTD/svg11.dtd">
<svg version="1.1" id="Capa_1" xmlns="http://www.w3.org/2000/svg" xmlns:xlink="http://www.w3.org/1999/xlink" x="0px" y="0px"
	 viewBox="0 0 485.917 485.917" style="enable-background:new 0 0 485.917 485.917;" xml:space="preserve">
<g>
	<path d="M272.607,94.205c1.431,0,2.882-0.066,4.314-0.196c12.528-1.139,23.863-7.089,31.917-16.755
		c8.054-9.665,11.862-21.888,10.723-34.417C317.339,18.416,297.196,0,272.704,0c-1.43,0-2.882,0.066-4.314,0.196
		c-25.863,2.351-44.992,25.306-42.641,51.17C227.971,75.788,248.115,94.205,272.607,94.205z M269.16,8.661
		c1.177-0.106,2.37-0.161,3.544-0.161c20.066,0,36.571,15.093,38.391,35.106c0.934,10.269-2.188,20.285-8.788,28.207
		c-6.601,7.921-15.89,12.797-26.157,13.73c-1.177,0.106-2.37,0.161-3.544,0.161c-20.066,0-36.572-15.094-38.392-35.108
		C232.288,29.4,247.964,10.588,269.16,8.661z"/>
	<path d="M447.807,451.103l-378.479,0.002V222.205l68.082,20.685c1.536,0.467,3.123,0.703,4.717,0.703
		c7.184,0,13.416-4.622,15.505-11.501l4.867-16.02c1.259-4.143,0.83-8.527-1.21-12.348c-0.285-0.534-0.604-1.043-0.941-1.536
		c3.235,1.59,6.837,2.471,10.56,2.471c2.98,0,5.911-0.551,8.71-1.636l59.07-22.909l7.562,83.176l-59.645,58.071
		c-0.025,0.023-0.051,0.048-0.076,0.072c-8.705,8.475-11.477,21.265-7.063,32.583c1.467,3.764,3.651,7.151,6.52,10.099
		l72.408,74.367c5.725,5.881,13.399,9.12,21.61,9.121c0.001,0,0.001,0,0.002,0c7.9,0,15.372-3.036,21.036-8.549
		c11.915-11.605,12.171-30.736,0.571-42.648l-51.396-52.791l34.219-33.316c2.814,0.527,5.66,0.8,8.518,0.8
		c1.317,0,2.636-0.061,3.954-0.173l34.796,66.667c1.493,2.859,3.407,5.457,5.69,7.724c5.967,6.276,14.042,9.726,22.593,9.725
		c1.115,0,2.238-0.059,3.365-0.177l80.407-9.492c17.127-1.799,29.6-17.195,27.802-34.322c-0.871-8.298-4.92-15.759-11.403-21.009
		c-6.482-5.252-14.622-7.661-22.973-6.786l-59.704,7.049l-38.735-74.216l-10.589-116.461c-2.315-25.471-24.918-44.311-50.393-41.996
		c-18.324,1.666-33.655,13.746-39.62,31.003l-75.952,29.456c-12.387,4.806-18.556,18.794-13.753,31.181
		c0.992,2.561,2.42,4.877,4.158,6.902c-0.297-0.109-0.59-0.227-0.895-0.32l-99.561-30.25c-1.536-0.467-3.123-0.703-4.716-0.703
		c-7.185,0-13.416,4.622-15.506,11.501l-4.868,16.023c-2.093,6.889,0.65,14.111,6.267,18.02v240.665h-2.926
		c-8.938,0-16.21,7.272-16.21,16.209v2.392c0,8.939,7.272,16.211,16.21,16.211h417.414c8.938,0,16.21-7.272,16.21-16.211v-2.392
		C464.017,458.375,456.745,451.103,447.807,451.103z M241.164,346.499l54.361,55.836c7.062,7.252,7.981,18.219,2.892,26.471
		l-56.362-59.073c-1.62-1.7-4.311-1.762-6.008-0.142c-1.698,1.62-1.762,4.311-0.141,6.009l56.704,59.431
		c-3.657,2.629-8.022,4.071-12.601,4.071c-0.001,0-0.001,0-0.001,0c-5.897-0.001-11.409-2.327-15.521-6.551l-72.437-74.396
		c-2.042-2.099-3.61-4.53-4.663-7.228c-3.16-8.103-1.194-17.254,5.009-23.342c0.023-0.022,0.047-0.045,0.07-0.067l74.393-72.43
		c4.067-3.962,9.433-6.144,15.108-6.144c5.896,0,11.408,2.326,15.521,6.549c8.331,8.56,8.146,22.301-0.412,30.634l-16.848,16.404
		c-0.006,0.005-0.011,0.011-0.017,0.017l-38.967,37.94C239.563,342.127,239.526,344.817,241.164,346.499z M375.569,339.087
		l62.559-7.387c6.039-0.633,11.962,1.121,16.681,4.943c3.949,3.199,6.636,7.533,7.786,12.4l-57.161,7.409
		c-2.328,0.302-3.97,2.434-3.669,4.761c0.278,2.143,2.105,3.704,4.21,3.704c0.182,0,0.366-0.012,0.552-0.035l56.472-7.319
		c-1.457,10.049-9.585,18.247-20.181,19.36l-80.408,9.492c-7.095,0.741-13.977-1.805-18.891-6.996
		c-0.033-0.034-0.066-0.068-0.1-0.102c-1.678-1.657-3.084-3.563-4.179-5.66l-33.581-64.34c16.758-4.765,29.377-18.624,32.768-35.473
		l32.876,62.989C372.119,338.397,373.815,339.292,375.569,339.087z M278.535,106.093c20.798-1.885,39.267,13.498,41.159,34.301
		l10.661,117.252l0.001,0.016l0.33,3.624c1.891,20.802-13.494,39.265-34.294,41.156c-1.345,0.122-2.69,0.164-4.033,0.143
		l10.648-10.368c11.915-11.602,12.172-30.735,0.572-42.652c-5.727-5.881-13.401-9.12-21.611-9.12
		c-7.904,0-15.376,3.038-21.039,8.554l-6.837,6.656l-7.159-78.739l39.395-15.279c12.389-4.804,18.561-18.79,13.758-31.177
		c-3.57-9.209-12.602-15.397-22.474-15.397c-2.979,0-5.909,0.551-8.707,1.636l-19.339,7.5
		C255.689,114.035,266.284,107.207,278.535,106.093z M165.267,166.011l106.714-41.386c1.814-0.703,3.709-1.061,5.633-1.061
		c6.39,0,12.237,4.007,14.549,9.969c3.108,8.018-0.887,17.069-8.907,20.179l-106.71,41.385c-1.815,0.704-3.712,1.062-5.637,1.062
		c-6.49,0-12.198-3.911-14.544-9.963C153.256,178.176,157.25,169.121,165.267,166.011z M35.185,194.891l4.868-16.023
		c0.979-3.222,4.011-5.472,7.373-5.472c0.756,0,1.512,0.113,2.246,0.336l99.56,30.25c1.97,0.599,3.59,1.929,4.56,3.746
		c0.97,1.816,1.174,3.901,0.575,5.872l-4.867,16.021c-0.979,3.222-4.011,5.472-7.373,5.472c-0.756,0-1.512-0.113-2.247-0.336
		l-99.52-30.236c-0.586-0.515-1.308-0.87-2.113-1C35.52,201.676,34.179,198.201,35.185,194.891z M455.517,469.706
		c0,4.252-3.458,7.711-7.71,7.711H30.393c-4.251,0-7.71-3.459-7.71-7.711v-2.392c0-4.251,3.458-7.709,7.71-7.709h7.176
		c2.347,0,4.25-1.902,4.25-4.25V213.848l19.009,5.775v235.732c0,1.127,0.448,2.208,1.245,3.005c0.797,0.797,1.878,1.245,3.005,1.245
		l382.729-0.002c4.251,0,7.71,3.459,7.71,7.711V469.706z"/>
</g>
<g>
</g>
<g>
</g>
<g>
</g>
<g>
</g>
<g>
</g>
<g>
</g>
<g>
</g>
<g>
</g>
<g>
</g>
<g>
</g>
<g>
</g>
<g>
</g>
<g>
</g>
<g>
</g>
<g>
</g>
</svg>
